<?xml version="1.0" encoding="UTF-8" standalone="no"?>
<svg
   xmlns:dc="http://purl.org/dc/elements/1.1/"
   xmlns:cc="http://creativecommons.org/ns#"
   xmlns:rdf="http://www.w3.org/1999/02/22-rdf-syntax-ns#"
   xmlns:svg="http://www.w3.org/2000/svg"
   xmlns="http://www.w3.org/2000/svg"
   xmlns:sodipodi="http://sodipodi.sourceforge.net/DTD/sodipodi-0.dtd"
   xmlns:inkscape="http://www.inkscape.org/namespaces/inkscape"
   width="210mm"
   height="297mm"
   viewBox="0 0 210 297"
   version="1.1"
   id="svg8059"
   inkscape:version="1.0.1 (1.0.1+r74)"
   sodipodi:docname="fig2_overlay_b.svg">
  <defs
     id="defs8053">
    <clipPath
       id="p1fb85daa27">
      <rect
         x="57.599998"
         y="41.472"
         width="357.12"
         height="252.28799"
         id="rect4873" />
    </clipPath>
    <clipPath
       id="clipPath8726">
      <rect
         x="57.599998"
         y="41.472"
         width="357.12"
         height="252.28799"
         id="rect8724" />
    </clipPath>
    <style
       type="text/css"
       id="style4528">*{stroke-linejoin: round; stroke-linecap: butt}</style>
    <path
       id="m14fce36891"
       d="M 0,0 V 3.5"
       style="stroke:#ffffff;stroke-width:0.8" />
    <path
       id="path4549"
       d="M 678,2272 H 4684 V 1741 H 678 Z"
       transform="scale(0.015625)" />
    <path
       id="path4551"
       d="M 794,531 H 1825 V 4091 L 703,3866 v 575 l 1116,225 h 631 V 531 H 3481 V 0 H 794 Z"
       transform="scale(0.015625)" />
    <path
       id="path4553"
       d="m 2034,2216 q -450,0 -708,-241 -257,-241 -257,-662 0,-422 257,-663 258,-241 708,-241 450,0 709,242 260,243 260,662 0,421 -258,662 -257,241 -711,241 z m -631,268 q -406,100 -633,378 -226,279 -226,679 0,559 398,884 399,325 1092,325 697,0 1094,-325 397,-325 397,-884 0,-400 -227,-679 -226,-278 -629,-378 456,-106 710,-416 255,-309 255,-755 Q 3634,634 3220,271 2806,-91 2034,-91 1263,-91 848,271 434,634 434,1313 q 0,446 256,755 257,310 713,416 z m -231,997 q 0,-362 226,-565 227,-203 636,-203 407,0 636,203 230,203 230,565 0,363 -230,566 -229,203 -636,203 -409,0 -636,-203 -226,-203 -226,-566 z"
       transform="scale(0.015625)" />
    <path
       id="path4555"
       d="m 2034,4250 q -487,0 -733,-480 -245,-479 -245,-1442 0,-959 245,-1439 246,-480 733,-480 491,0 736,480 246,480 246,1439 0,963 -246,1442 -245,480 -736,480 z m 0,500 q 785,0 1199,-621 414,-620 414,-1801 0,-1178 -414,-1799 -414,-620 -1199,-620 -784,0 -1198,620 -414,621 -414,1799 0,1181 414,1801 414,621 1198,621 z"
       transform="scale(0.015625)" />
    <path
       id="path4579"
       d="m 703,97 v 575 q 238,-113 481,-172 244,-59 479,-59 625,0 954,420 330,420 377,1277 -181,-269 -460,-413 -278,-144 -615,-144 -700,0 -1108,423 -408,424 -408,1159 0,718 425,1152 425,435 1131,435 810,0 1236,-621 427,-620 427,-1801 Q 3622,1225 3098,567 2575,-91 1691,-91 1453,-91 1209,-44 966,3 703,97 Z m 1256,1978 q 425,0 673,290 249,291 249,798 0,503 -249,795 -248,292 -673,292 -425,0 -673,-292 -248,-292 -248,-795 0,-507 248,-798 248,-290 673,-290 z"
       transform="scale(0.015625)" />
    <path
       id="path4642"
       d="m 2619,1628 3,722 q 3,738 -553,741 -416,3 -675,-344 -325,-428 -435,-1000 -134,-688 35,-1016 175,-334 553,-334 419,0 772,666 z m -453,1950 q 975,16 962,-994 0,0 488,916 h 512 L 3119,1603 3109,919 q 0,-153 85,-281 97,-150 197,-150 h 278 L 3575,0 H 3228 Q 2934,0 2722,263 2622,394 2619,669 2416,334 2066,50 1900,-81 1453,-78 722,-72 456,397 184,884 353,1747 q 181,928 656,1350 535,472 1157,481 z"
       transform="scale(0.015625)" />
    <path
       id="mc4993e5868"
       d="M 0,0 H -3.5"
       style="stroke:#ffffff;stroke-width:0.8" />
    <path
       id="path4695"
       d="M 1228,531 H 3431 V 0 H 469 v 531 q 359,372 979,998 621,627 780,809 303,340 423,576 121,236 121,464 0,372 -261,606 -261,235 -680,235 -297,0 -627,-103 -329,-103 -704,-313 v 638 q 381,153 712,231 332,78 607,78 725,0 1156,-363 431,-362 431,-968 0,-288 -108,-546 -107,-257 -392,-607 -78,-91 -497,-524 Q 1991,1309 1228,531 Z"
       transform="scale(0.015625)" />
    <path
       id="path4717"
       d="m 2597,2516 q 453,-97 707,-404 255,-306 255,-756 0,-690 -475,-1069 -475,-378 -1350,-378 -293,0 -604,58 -311,58 -642,174 v 609 q 262,-153 574,-231 313,-78 654,-78 593,0 904,234 311,234 311,681 0,413 -289,645 -289,233 -804,233 h -544 v 519 h 569 q 465,0 712,186 247,186 247,536 0,359 -255,551 -254,193 -729,193 -260,0 -557,-57 -297,-56 -653,-174 v 562 q 360,100 674,150 314,50 592,50 719,0 1137,-327 419,-326 419,-882 0,-388 -222,-655 -222,-267 -631,-370 z"
       transform="scale(0.015625)" />
    <path
       id="path4733"
       d="m 628,4666 h 850 L 3547,763 v 3903 h 612 V 0 H 3309 L 1241,3903 V 0 H 628 Z"
       transform="scale(0.015625)" />
    <path
       id="path4735"
       d="m 544,1381 v 2119 h 575 V 1403 q 0,-497 193,-746 194,-248 582,-248 465,0 735,297 271,297 271,810 v 1984 h 575 V 0 H 2900 V 538 Q 2691,219 2414,64 2138,-91 1772,-91 1169,-91 856,284 544,659 544,1381 Z m 1447,2203 z"
       transform="scale(0.015625)" />
    <path
       id="path4737"
       d="m 3328,2828 q 216,388 516,572 300,184 706,184 547,0 844,-383 297,-382 297,-1088 V 0 h -578 v 2094 q 0,503 -179,746 -178,244 -543,244 -447,0 -707,-297 -259,-296 -259,-809 V 0 h -578 v 2094 q 0,506 -178,748 -178,242 -550,242 -441,0 -701,-298 -259,-298 -259,-808 V 0 H 581 v 3500 h 578 v -544 q 197,322 472,475 275,153 653,153 382,0 649,-194 267,-193 395,-562 z"
       transform="scale(0.015625)" />
    <path
       id="path4739"
       d="m 3116,1747 q 0,634 -261,995 -261,361 -717,361 -457,0 -718,-361 -261,-361 -261,-995 0,-634 261,-995 261,-361 718,-361 456,0 717,361 261,361 261,995 z M 1159,2969 q 182,312 458,463 277,152 661,152 638,0 1036,-506 399,-506 399,-1331 Q 3713,922 3314,415 2916,-91 2278,-91 1894,-91 1617,61 1341,213 1159,525 V 0 H 581 v 4863 h 578 z"
       transform="scale(0.015625)" />
    <path
       id="path4741"
       d="M 3597,1894 V 1613 H 953 q 38,-594 358,-905 320,-311 892,-311 331,0 642,81 311,81 618,244 V 178 Q 3153,47 2828,-22 2503,-91 2169,-91 1331,-91 842,396 353,884 353,1716 q 0,859 464,1363 464,505 1252,505 706,0 1117,-455 411,-454 411,-1235 z m -575,169 q -6,471 -264,752 -258,282 -683,282 -481,0 -770,-272 -289,-272 -333,-766 z"
       transform="scale(0.015625)" />
    <path
       id="path4743"
       d="m 2631,2963 q -97,56 -211,82 -114,27 -251,27 -488,0 -749,-317 -261,-317 -261,-911 V 0 H 581 v 3500 h 578 v -544 q 182,319 472,473 291,155 707,155 59,0 131,-8 72,-7 159,-23 z"
       transform="scale(0.015625)" />
    <path
       id="path4745"
       transform="scale(0.015625)"
       d="" />
    <path
       id="path4747"
       d="m 1959,3097 q -462,0 -731,-361 -269,-361 -269,-989 0,-628 267,-989 268,-361 733,-361 460,0 728,362 269,363 269,988 0,622 -269,986 -268,364 -728,364 z m 0,487 q 750,0 1178,-488 429,-487 429,-1349 Q 3566,888 3137,398 2709,-91 1959,-91 1206,-91 779,398 353,888 353,1747 q 0,862 426,1349 427,488 1180,488 z"
       transform="scale(0.015625)" />
    <path
       id="path4749"
       d="m 2375,4863 v -479 h -550 q -309,0 -430,-125 -120,-125 -120,-450 v -309 h 947 V 3053 H 1275 V 0 H 697 V 3053 H 147 v 447 h 550 v 244 q 0,584 272,851 272,268 862,268 z"
       transform="scale(0.015625)" />
    <path
       id="path4751"
       d="m 3122,3366 v -538 q -244,135 -489,202 -245,67 -495,67 -560,0 -870,-355 -309,-354 -309,-995 0,-641 309,-996 310,-354 870,-354 250,0 495,67 245,67 489,202 V 134 Q 2881,22 2623,-34 2366,-91 2075,-91 1284,-91 818,406 353,903 353,1747 q 0,856 470,1346 471,491 1290,491 265,0 518,-55 253,-54 491,-163 z"
       transform="scale(0.015625)" />
    <path
       id="path4753"
       d="m 603,4863 h 575 V 0 H 603 Z"
       transform="scale(0.015625)" />
    <path
       id="path4755"
       d="m 2834,3397 v -544 q -243,125 -506,187 -262,63 -544,63 -428,0 -642,-131 -214,-131 -214,-394 0,-200 153,-314 153,-114 616,-217 l 197,-44 q 612,-131 870,-370 258,-239 258,-667 0,-488 -386,-773 Q 2250,-91 1575,-91 1294,-91 989,-36 684,19 347,128 v 594 q 319,-166 628,-249 309,-82 613,-82 406,0 624,139 219,139 219,392 0,234 -158,359 -157,125 -692,241 l -200,47 q -534,112 -772,345 -237,233 -237,639 0,494 350,762 350,269 994,269 318,0 599,-47 282,-46 519,-140 z"
       transform="scale(0.015625)" />
    <path
       id="path4819"
       d="M 3566,2113 3156,0 h -578 l 410,2091 q 28,147 43,259 16,113 16,178 0,263 -166,409 -165,147 -462,147 -463,0 -797,-308 -334,-307 -438,-835 L 800,0 H 225 l 678,3500 h 575 l -115,-550 q 240,303 577,468 338,166 710,166 463,0 717,-250 255,-250 255,-703 0,-112 -14,-240 -14,-128 -42,-278 z"
       transform="scale(0.015625)" />
    <path
       id="DejaVuSans-Oblique-4c"
       d="m 1075,4666 h 634 L 909,525 H 3181 L 3078,0 H 172 Z"
       transform="scale(0.015625)" />
    <path
       id="path4822"
       d="M 678,2906 H 4684 V 2381 H 678 Z m 0,-1275 H 4684 V 1100 H 678 Z"
       transform="scale(0.015625)" />
    <path
       id="path4824"
       d="M 2419,4116 825,1625 h 1594 z m -166,550 h 794 V 1625 h 666 V 1100 H 3047 V 0 H 2419 V 1100 H 313 v 609 z"
       transform="scale(0.015625)" />
    <path
       id="path4826"
       d="M 525,4666 H 3525 V 4397 L 1831,0 H 1172 L 2766,4134 H 525 Z"
       transform="scale(0.015625)" />
    <path
       id="DejaVuSans-Oblique-52"
       d="M 1613,4147 1294,2491 h 812 q 478,0 773,264 296,264 296,689 0,340 -199,521 -198,182 -570,182 z M 2772,2241 q 200,-47 333,-232 133,-184 308,-734 L 3809,0 h -665 l -366,1197 q -140,462 -325,618 -184,157 -565,157 H 1191 L 806,0 H 172 l 909,4666 h 1422 q 647,0 992,-293 346,-292 346,-842 0,-487 -294,-844 -294,-356 -775,-446 z"
       transform="scale(0.015625)" />
    <path
       id="path4829"
       d="m 2113,2584 q -425,0 -674,-291 -248,-290 -248,-796 0,-503 248,-796 249,-292 674,-292 425,0 673,292 248,293 248,796 0,506 -248,796 -248,291 -673,291 z m 1253,1979 v -575 q -238,112 -480,171 -242,60 -480,60 -625,0 -955,-422 -329,-422 -376,-1275 184,272 462,417 279,145 613,145 703,0 1111,-427 408,-426 408,-1160 0,-719 -425,-1154 -425,-434 -1131,-434 -810,0 -1238,620 -428,621 -428,1799 0,1106 525,1764 525,658 1409,658 238,0 480,-47 242,-47 505,-140 z"
       transform="scale(0.015625)" />
    <clipPath
       id="clipPath8906">
      <rect
         x="57.599998"
         y="41.472"
         width="357.12"
         height="252.28799"
         id="rect8904" />
    </clipPath>
  </defs>
  <sodipodi:namedview
     id="base"
     pagecolor="#ffffff"
     bordercolor="#666666"
     borderopacity="1.0"
     inkscape:pageopacity="0.0"
     inkscape:pageshadow="2"
     inkscape:zoom="2.2687888"
     inkscape:cx="136.32902"
     inkscape:cy="146.23587"
     inkscape:document-units="mm"
     inkscape:current-layer="g33705"
     inkscape:document-rotation="0"
     showgrid="false"
     inkscape:window-width="1848"
     inkscape:window-height="1016"
     inkscape:window-x="72"
     inkscape:window-y="27"
     inkscape:window-maximized="1" />
  <metadata
     id="metadata8056">
    <rdf:RDF>
      <cc:Work
         rdf:about="">
        <dc:format>image/svg+xml</dc:format>
        <dc:type
           rdf:resource="http://purl.org/dc/dcmitype/StillImage" />
        <dc:title />
      </cc:Work>
    </rdf:RDF>
  </metadata>
  <g
     inkscape:label="Layer 1"
     inkscape:groupmode="layer"
     id="layer1">
    <g
       id="g33705"
       transform="matrix(0.15590011,0,0,0.15590011,29.00005,5.7926285)"
       style="stroke-linecap:butt;stroke-linejoin:round"
       inkscape:transform-center-x="3.2609816"
       inkscape:transform-center-y="17.288966">
      <ellipse
         style="fill:none;fill-opacity:1;stroke:#000000;stroke-width:0.383278;stroke-miterlimit:4;stroke-dasharray:none"
         id="ellipse3935"
         cx="-41.24807"
         cy="43.777699"
         rx="24.546661"
         ry="17.781834"
         transform="rotate(-90)" />
      <path
         style="fill:none;stroke:#000000;stroke-width:0.382676px;stroke-linecap:butt;stroke-linejoin:miter;stroke-opacity:1"
         d="M 44.262307,76.408686 C 44.388283,65.700779 44.388283,65.700779 44.388283,65.700779"
         id="path3937"
         inkscape:connector-curvature="0" />
      <path
         id="ellipse891"
         style="fill:#ffff00;fill-opacity:1;stroke:#000000;stroke-width:0.383278;stroke-miterlimit:4;stroke-dasharray:none"
         sodipodi:type="arc"
         sodipodi:cx="-41.169724"
         sodipodi:cy="45.0219"
         sodipodi:rx="24.546661"
         sodipodi:ry="17.781834"
         sodipodi:start="6.1933178"
         sodipodi:end="3.1772332"
         sodipodi:open="true"
         sodipodi:arc-type="arc"
         transform="rotate(-90)"
         d="M -16.722117,43.426041 A 24.546661,17.781834 0 0 1 -27.889885,59.97678 24.546661,17.781834 0 0 1 -53.311116,60.476207 24.546661,17.781834 0 0 1 -65.700796,44.38828" />
      <path
         sodipodi:open="true"
         sodipodi:end="3.1772332"
         sodipodi:start="0"
         sodipodi:ry="17.781834"
         sodipodi:rx="24.546661"
         sodipodi:cy="-43.754658"
         sodipodi:cx="-41.169724"
         sodipodi:type="arc"
         style="fill:#0000ff;fill-opacity:1;stroke:#000000;stroke-width:0.383278;stroke-miterlimit:4;stroke-dasharray:none"
         id="path893"
         transform="matrix(0,-1,-1,0,0,0)"
         sodipodi:arc-type="arc"
         d="m -16.623062,-43.754658 a 24.546661,17.781834 0 0 1 -12.52674,15.504056 24.546661,17.781834 0 0 1 -24.794839,-0.320114 24.546661,17.781834 0 0 1 -11.756155,-15.817562" />
      <text
         id="text1858"
         y="46.511391"
         x="30.833469"
         style="font-style:normal;font-weight:normal;font-size:18.1028px;line-height:1.25;font-family:Arial;letter-spacing:0px;word-spacing:0px;fill:#ffffff;fill-opacity:1;stroke:none;stroke-width:0.382676"
         xml:space="preserve"><tspan
           style="font-size:18.1028px;fill:#ffffff;stroke-width:0.382676"
           y="46.511391"
           x="30.833469"
           id="tspan1856"
           sodipodi:role="line">L</tspan></text>
      <text
         id="text1862"
         y="46.779114"
         x="46.619774"
         style="font-style:normal;font-weight:normal;font-size:18.1028px;line-height:1.25;font-family:Arial;letter-spacing:0px;word-spacing:0px;fill:#000000;fill-opacity:1;stroke:none;stroke-width:0.382676"
         xml:space="preserve"><tspan
           style="font-size:18.1028px;stroke-width:0.382676"
           y="46.779114"
           x="46.619774"
           id="tspan1860"
           sodipodi:role="line">R</tspan></text>
    </g>
    <g
       id="g49172"
       transform="matrix(0.63533621,0,0,0.63533621,-26.280019,-187.95451)"
       style="stroke-linecap:butt;stroke-linejoin:round">
      <g
         transform="matrix(-1.8538402,0.05819705,-0.05819705,-1.8538402,122.74198,477.60061)"
         id="g1922"
         style="stroke-linecap:butt;stroke-linejoin:round">
        <path
           style="fill:none;stroke:#000000;stroke-width:0.265;stroke-linecap:butt;stroke-linejoin:miter;stroke-miterlimit:4;stroke-dasharray:none;stroke-opacity:1"
           d="M 33.054856,52.309003 V 50.546886"
           id="path1916"
           inkscape:connector-curvature="0" />
        <path
           style="fill:none;stroke:#000000;stroke-width:0.264583px;stroke-linecap:butt;stroke-linejoin:miter;stroke-opacity:1"
           d="m 32.741904,51.030481 0.31927,-0.531374 0.332666,0.531374"
           id="path1918"
           inkscape:connector-curvature="0" />
        <path
           inkscape:connector-curvature="0"
           id="path1920"
           d="M 33.054856,52.309003 V 50.546886"
           style="fill:none;stroke:#000000;stroke-width:0.265;stroke-linecap:butt;stroke-linejoin:miter;stroke-miterlimit:4;stroke-dasharray:none;stroke-opacity:1" />
      </g>
      <path
         style="fill:none;stroke:#ff0000;stroke-width:0.490736px;stroke-linecap:butt;stroke-linejoin:miter;stroke-opacity:1"
         d="m 56.771306,381.15823 c 1.577665,-0.89728 5.115488,1.19398 4.564092,3.55834 -0.551396,2.36436 0.713034,4.35436 -2.132313,4.75595 -2.845347,0.40158 -3.656337,-2.74189 -3.408941,-4.37225 0.247396,-1.63035 -0.600503,-3.04476 0.977162,-3.94204 z"
         id="path1926"
         inkscape:connector-curvature="0"
         sodipodi:nodetypes="zzzzz" />
      <path
         style="fill:#00ff00;stroke:#00ff00;stroke-width:0.490736px;stroke-linecap:butt;stroke-linejoin:miter;stroke-opacity:1"
         d="m 57.505927,380.8041 c 0.556399,0.18591 1.182506,0.15105 1.687332,0.47071 0.455363,0.18239 0.987168,0.36653 1.194409,0.85502 0.128926,0.18011 0.470815,0.62343 -9.96e-4,0.44119 -0.506118,-0.18767 -0.875224,-0.6622 -1.437463,-0.72496 -0.426946,-0.16159 -0.921992,-0.19193 -1.340573,0.0371 -0.439154,0.17467 -0.847454,0.51963 -1.306271,0.5791 -0.512833,-0.27169 -0.338026,-0.91333 0.149946,-1.07795 0.234858,-0.47249 0.923105,-0.12985 1.053595,-0.58012 z"
         id="path1924"
         inkscape:connector-curvature="0" />
    </g>
    <g
       id="g49200"
       transform="matrix(-0.63533621,0,0,-0.63533621,73.470631,301.55713)"
       style="stroke-linecap:butt;stroke-linejoin:round">
      <g
         transform="matrix(-1.8538402,0.05819705,-0.05819705,-1.8538402,122.74198,477.60061)"
         id="g49194"
         style="stroke-linecap:butt;stroke-linejoin:round">
        <path
           style="fill:none;stroke:#000000;stroke-width:0.265;stroke-linecap:butt;stroke-linejoin:miter;stroke-miterlimit:4;stroke-dasharray:none;stroke-opacity:1"
           d="M 33.054856,52.309003 V 50.546886"
           id="path49188"
           inkscape:connector-curvature="0" />
        <path
           style="fill:none;stroke:#000000;stroke-width:0.264583px;stroke-linecap:butt;stroke-linejoin:miter;stroke-opacity:1"
           d="m 32.741904,51.030481 0.31927,-0.531374 0.332666,0.531374"
           id="path49190"
           inkscape:connector-curvature="0" />
        <path
           inkscape:connector-curvature="0"
           id="path49192"
           d="M 33.054856,52.309003 V 50.546886"
           style="fill:none;stroke:#000000;stroke-width:0.265;stroke-linecap:butt;stroke-linejoin:miter;stroke-miterlimit:4;stroke-dasharray:none;stroke-opacity:1" />
      </g>
      <path
         style="fill:none;stroke:#ff0000;stroke-width:0.490736px;stroke-linecap:butt;stroke-linejoin:miter;stroke-opacity:1"
         d="m 56.771306,381.15823 c 1.577665,-0.89728 5.115488,1.19398 4.564092,3.55834 -0.551396,2.36436 0.713034,4.35436 -2.132313,4.75595 -2.845347,0.40158 -3.656337,-2.74189 -3.408941,-4.37225 0.247396,-1.63035 -0.600503,-3.04476 0.977162,-3.94204 z"
         id="path49196"
         inkscape:connector-curvature="0"
         sodipodi:nodetypes="zzzzz" />
      <path
         style="fill:#00ff00;stroke:#00ff00;stroke-width:0.490736px;stroke-linecap:butt;stroke-linejoin:miter;stroke-opacity:1"
         d="m 57.505927,380.8041 c 0.556399,0.18591 1.182506,0.15105 1.687332,0.47071 0.455363,0.18239 0.987168,0.36653 1.194409,0.85502 0.128926,0.18011 0.470815,0.62343 -9.96e-4,0.44119 -0.506118,-0.18767 -0.875224,-0.6622 -1.437463,-0.72496 -0.426946,-0.16159 -0.921992,-0.19193 -1.340573,0.0371 -0.439154,0.17467 -0.847454,0.51963 -1.306271,0.5791 -0.512833,-0.27169 -0.338026,-0.91333 0.149946,-1.07795 0.234858,-0.47249 0.923105,-0.12985 1.053595,-0.58012 z"
         id="path49198"
         inkscape:connector-curvature="0" />
    </g>
    <g
       id="g49228"
       transform="matrix(0.63533621,0,0,0.63533621,25.030198,-188.88077)"
       style="stroke-linecap:butt;stroke-linejoin:round">
      <g
         transform="matrix(-1.8538402,0.05819705,-0.05819705,-1.8538402,122.74198,477.60061)"
         id="g49222"
         style="stroke-linecap:butt;stroke-linejoin:round">
        <path
           style="fill:none;stroke:#000000;stroke-width:0.265;stroke-linecap:butt;stroke-linejoin:miter;stroke-miterlimit:4;stroke-dasharray:none;stroke-opacity:1"
           d="M 33.054856,52.309003 V 50.546886"
           id="path49216"
           inkscape:connector-curvature="0" />
        <path
           style="fill:none;stroke:#000000;stroke-width:0.264583px;stroke-linecap:butt;stroke-linejoin:miter;stroke-opacity:1"
           d="m 32.741904,51.030481 0.31927,-0.531374 0.332666,0.531374"
           id="path49218"
           inkscape:connector-curvature="0" />
        <path
           inkscape:connector-curvature="0"
           id="path49220"
           d="M 33.054856,52.309003 V 50.546886"
           style="fill:none;stroke:#000000;stroke-width:0.265;stroke-linecap:butt;stroke-linejoin:miter;stroke-miterlimit:4;stroke-dasharray:none;stroke-opacity:1" />
      </g>
      <path
         style="fill:none;stroke:#ff0000;stroke-width:0.490736px;stroke-linecap:butt;stroke-linejoin:miter;stroke-opacity:1"
         d="m 56.771306,381.15823 c 1.577665,-0.89728 5.115488,1.19398 4.564092,3.55834 -0.551396,2.36436 0.713034,4.35436 -2.132313,4.75595 -2.845347,0.40158 -3.656337,-2.74189 -3.408941,-4.37225 0.247396,-1.63035 -0.600503,-3.04476 0.977162,-3.94204 z"
         id="path49224"
         inkscape:connector-curvature="0"
         sodipodi:nodetypes="zzzzz" />
      <path
         style="fill:#00ff00;stroke:#00ff00;stroke-width:0.490736px;stroke-linecap:butt;stroke-linejoin:miter;stroke-opacity:1"
         d="m 57.505927,380.8041 c 0.556399,0.18591 1.182506,0.15105 1.687332,0.47071 0.455363,0.18239 0.987168,0.36653 1.194409,0.85502 0.128926,0.18011 0.470815,0.62343 -9.96e-4,0.44119 -0.506118,-0.18767 -0.875224,-0.6622 -1.437463,-0.72496 -0.426946,-0.16159 -0.921992,-0.19193 -1.340573,0.0371 -0.439154,0.17467 -0.847454,0.51963 -1.306271,0.5791 -0.512833,-0.27169 -0.338026,-0.91333 0.149946,-1.07795 0.234858,-0.47249 0.923105,-0.12985 1.053595,-0.58012 z"
         id="path49226"
         inkscape:connector-curvature="0" />
    </g>
    <g
       id="g50091"
       transform="matrix(0.63533621,0,0,0.63533621,25.145157,-182.84385)"
       style="stroke-linecap:butt;stroke-linejoin:round">
      <g
         transform="matrix(-0.05819705,-1.8538402,1.8538402,-0.05819705,-53.802189,441.7117)"
         id="g49180"
         style="stroke-linecap:butt;stroke-linejoin:round">
        <path
           style="fill:none;stroke:#000000;stroke-width:0.265;stroke-linecap:butt;stroke-linejoin:miter;stroke-miterlimit:4;stroke-dasharray:none;stroke-opacity:1"
           d="M 33.054856,52.309003 V 50.546886"
           id="path49174"
           inkscape:connector-curvature="0" />
        <path
           style="fill:none;stroke:#000000;stroke-width:0.264583px;stroke-linecap:butt;stroke-linejoin:miter;stroke-opacity:1"
           d="m 32.741904,51.030481 0.31927,-0.531374 0.332666,0.531374"
           id="path49176"
           inkscape:connector-curvature="0" />
        <path
           inkscape:connector-curvature="0"
           id="path49178"
           d="M 33.054856,52.309003 V 50.546886"
           style="fill:none;stroke:#000000;stroke-width:0.265;stroke-linecap:butt;stroke-linejoin:miter;stroke-miterlimit:4;stroke-dasharray:none;stroke-opacity:1" />
      </g>
      <path
         style="fill:none;stroke:#ff0000;stroke-width:0.490736px;stroke-linecap:butt;stroke-linejoin:miter;stroke-opacity:1"
         d="m 41.267136,380.51068 c -1.577665,0.89728 -5.115488,-1.19398 -4.564092,-3.55834 0.551396,-2.36436 -0.713034,-4.35436 2.132313,-4.75595 2.845347,-0.40158 3.656337,2.74189 3.408941,4.37225 -0.247396,1.63035 0.600503,3.04476 -0.977162,3.94204 z"
         id="path49182"
         inkscape:connector-curvature="0"
         sodipodi:nodetypes="zzzzz" />
      <path
         id="path49236"
         style="fill:none;stroke:#00ff00;stroke-width:0.817428;stroke-linecap:butt;stroke-linejoin:miter;stroke-miterlimit:4;stroke-dasharray:none;stroke-opacity:1"
         d="m 41.578619,373.57847 c 0.733578,1.58369 0.735244,3.15844 0.506238,5.12256"
         sodipodi:nodetypes="cc" />
    </g>
    <g
       id="g50099"
       transform="matrix(0.63533621,0,0,0.63533621,-8.6304639,-181.92664)"
       style="stroke-linecap:butt;stroke-linejoin:round">
      <g
         transform="matrix(0.05819705,1.8538402,-1.8538402,0.05819705,144.14698,312.4377)"
         id="g50079"
         style="stroke-linecap:butt;stroke-linejoin:round">
        <path
           style="fill:none;stroke:#000000;stroke-width:0.265;stroke-linecap:butt;stroke-linejoin:miter;stroke-miterlimit:4;stroke-dasharray:none;stroke-opacity:1"
           d="M 33.054856,52.309003 V 50.546886"
           id="path50073"
           inkscape:connector-curvature="0" />
        <path
           style="fill:none;stroke:#000000;stroke-width:0.264583px;stroke-linecap:butt;stroke-linejoin:miter;stroke-opacity:1"
           d="m 32.741904,51.030481 0.31927,-0.531374 0.332666,0.531374"
           id="path50075"
           inkscape:connector-curvature="0" />
        <path
           inkscape:connector-curvature="0"
           id="path50077"
           d="M 33.054856,52.309003 V 50.546886"
           style="fill:none;stroke:#000000;stroke-width:0.265;stroke-linecap:butt;stroke-linejoin:miter;stroke-miterlimit:4;stroke-dasharray:none;stroke-opacity:1" />
      </g>
      <path
         style="fill:none;stroke:#ff0000;stroke-width:0.490736px;stroke-linecap:butt;stroke-linejoin:miter;stroke-opacity:1"
         d="m 52.474255,379.78143 c -1.577665,0.89728 -5.115488,-1.19398 -4.564092,-3.55834 0.551396,-2.36436 -0.713034,-4.35436 2.132313,-4.75595 2.845347,-0.40158 3.656337,2.74189 3.408941,4.37225 -0.247396,1.63035 0.600503,3.04476 -0.977162,3.94204 z"
         id="path50081"
         inkscape:connector-curvature="0"
         sodipodi:nodetypes="zzzzz" />
      <path
         id="path50083"
         style="fill:none;stroke:#00ff00;stroke-width:0.817428;stroke-linecap:butt;stroke-linejoin:miter;stroke-miterlimit:4;stroke-dasharray:none;stroke-opacity:1"
         d="m 48.481395,372.90454 c -0.687072,1.52598 -0.848513,2.30492 -0.506238,5.12256"
         sodipodi:nodetypes="cc" />
    </g>
  </g>
</svg>
